<svg width="24" height="25" viewBox="0 0 24 25" fill="none" xmlns="http://www.w3.org/2000/svg">
<path d="M1.71406 13.6353L19.5402 13.6353L10.4557 21.6357C10.2933 21.7721 10.164 21.936 10.0757 22.1176C9.98733 22.2993 9.94178 22.4948 9.94178 22.6924C9.94178 22.89 9.98733 23.0855 10.0757 23.2672C10.164 23.4488 10.2933 23.6127 10.4557 23.7491C10.6105 23.8921 10.7967 24.006 11.0029 24.0838C11.2092 24.1616 11.4312 24.2017 11.6556 24.2017C11.8799 24.2017 12.102 24.1616 12.3082 24.0838C12.5145 24.006 12.7006 23.8921 12.8554 23.7491L22.4541 15.2958C23.2924 14.5416 23.8074 13.5546 23.9111 12.5032C23.9111 12.3522 23.9968 12.2768 23.9968 12.1258C24.0104 11.971 23.9809 11.8155 23.9111 11.673C23.7902 10.6256 23.2777 9.64334 22.4541 8.88036L12.8554 0.427088C12.5361 0.151505 12.1062 -0.00196569 11.6591 2.28358e-05C11.2121 0.00201136 10.7839 0.159301 10.4678 0.437709C10.1517 0.716118 9.97306 1.09315 9.9708 1.48687C9.96855 1.8806 10.1428 2.2592 10.4557 2.54041L19.4545 10.6163L1.71406 10.6163C1.25946 10.6163 0.823484 10.7753 0.502036 11.0584C0.180588 11.3415 2.30818e-06 11.7255 2.26851e-06 12.1258C2.22885e-06 12.5262 0.180588 12.9101 0.502036 13.1932C0.823484 13.4763 1.25946 13.6353 1.71406 13.6353Z" fill="white"/>
</svg>
